<svg xmlns="http://www.w3.org/2000/svg" xmlns:xlink="http://www.w3.org/1999/xlink" width="391" zoomAndPan="magnify" viewBox="0 0 293.25 202.499993" height="270" preserveAspectRatio="xMidYMid meet" version="1.0"><path fill="#ffffff" d="M 97.15625 82.378906 C 97.15625 85.148438 97.457031 87.394531 97.980469 89.039062 C 98.578125 90.6875 99.328125 92.484375 100.375 94.429688 C 100.75 95.027344 100.898438 95.625 100.898438 96.148438 C 100.898438 96.898438 100.449219 97.644531 99.476562 98.394531 L 94.761719 101.539062 C 94.089844 101.988281 93.417969 102.210938 92.816406 102.210938 C 92.070312 102.210938 91.320312 101.835938 90.574219 101.164062 C 89.523438 100.039062 88.628906 98.84375 87.878906 97.644531 C 87.128906 96.375 86.382812 94.953125 85.558594 93.230469 C 79.722656 100.117188 72.386719 103.558594 63.558594 103.558594 C 57.273438 103.558594 52.257812 101.761719 48.589844 98.171875 C 44.925781 94.578125 43.054688 89.789062 43.054688 83.800781 C 43.054688 77.441406 45.296875 72.277344 49.863281 68.386719 C 54.429688 64.496094 60.488281 62.550781 68.199219 62.550781 C 70.742188 62.550781 73.359375 62.773438 76.128906 63.148438 C 78.898438 63.523438 81.742188 64.121094 84.734375 64.792969 L 84.734375 59.332031 C 84.734375 53.644531 83.539062 49.679688 81.21875 47.359375 C 78.824219 45.039062 74.78125 43.914062 69.019531 43.914062 C 66.402344 43.914062 63.707031 44.214844 60.9375 44.890625 C 58.171875 45.5625 55.476562 46.386719 52.855469 47.433594 C 51.660156 47.957031 50.761719 48.257812 50.238281 48.40625 C 49.714844 48.554688 49.339844 48.628906 49.039062 48.628906 C 47.992188 48.628906 47.46875 47.882812 47.46875 46.3125 L 47.46875 42.644531 C 47.46875 41.445312 47.617188 40.546875 47.992188 40.023438 C 48.367188 39.5 49.039062 38.976562 50.089844 38.453125 C 52.707031 37.105469 55.851562 35.984375 59.515625 35.085938 C 63.183594 34.113281 67.074219 33.664062 71.191406 33.664062 C 80.097656 33.664062 86.605469 35.683594 90.796875 39.726562 C 94.914062 43.765625 97.007812 49.902344 97.007812 58.132812 L 97.007812 82.378906 Z M 66.777344 93.753906 C 69.246094 93.753906 71.789062 93.304688 74.484375 92.40625 C 77.175781 91.511719 79.574219 89.863281 81.59375 87.617188 C 82.789062 86.195312 83.6875 84.625 84.136719 82.828125 C 84.585938 81.03125 84.886719 78.863281 84.886719 76.320312 L 84.886719 73.175781 C 82.714844 72.652344 80.394531 72.203125 78 71.902344 C 75.605469 71.605469 73.285156 71.453125 70.964844 71.453125 C 65.953125 71.453125 62.285156 72.425781 59.816406 74.449219 C 57.347656 76.46875 56.148438 79.3125 56.148438 83.054688 C 56.148438 86.570312 57.046875 89.191406 58.917969 90.984375 C 60.714844 92.855469 63.332031 93.753906 66.777344 93.753906 Z M 126.867188 101.835938 C 125.519531 101.835938 124.621094 101.613281 124.023438 101.089844 C 123.425781 100.640625 122.902344 99.589844 122.453125 98.171875 L 104.867188 40.324219 C 104.417969 38.828125 104.191406 37.855469 104.191406 37.332031 C 104.191406 36.132812 104.792969 35.460938 105.988281 35.460938 L 113.320312 35.460938 C 114.742188 35.460938 115.714844 35.683594 116.242188 36.207031 C 116.839844 36.65625 117.289062 37.703125 117.738281 39.125 L 130.308594 88.667969 L 141.984375 39.125 C 142.355469 37.628906 142.804688 36.65625 143.40625 36.207031 C 144.003906 35.757812 145.050781 35.460938 146.398438 35.460938 L 152.386719 35.460938 C 153.808594 35.460938 154.78125 35.683594 155.378906 36.207031 C 155.976562 36.65625 156.5 37.703125 156.800781 39.125 L 168.625 89.265625 L 181.570312 39.125 C 182.019531 37.628906 182.542969 36.65625 183.066406 36.207031 C 183.664062 35.757812 184.636719 35.460938 185.984375 35.460938 L 192.945312 35.460938 C 194.140625 35.460938 194.816406 36.058594 194.816406 37.332031 C 194.816406 37.703125 194.742188 38.078125 194.664062 38.527344 C 194.589844 38.976562 194.441406 39.574219 194.140625 40.398438 L 176.105469 98.246094 C 175.65625 99.742188 175.132812 100.714844 174.535156 101.164062 C 173.9375 101.613281 172.964844 101.910156 171.691406 101.910156 L 165.257812 101.910156 C 163.835938 101.910156 162.863281 101.6875 162.261719 101.164062 C 161.664062 100.640625 161.140625 99.667969 160.839844 98.171875 L 149.242188 49.902344 L 137.71875 98.09375 C 137.34375 99.589844 136.894531 100.566406 136.296875 101.089844 C 135.695312 101.613281 134.648438 101.835938 133.300781 101.835938 Z M 223.027344 103.855469 C 219.136719 103.855469 215.246094 103.410156 211.503906 102.511719 C 207.761719 101.613281 204.84375 100.640625 202.898438 99.515625 C 201.699219 98.84375 200.875 98.09375 200.578125 97.421875 C 200.277344 96.75 200.128906 96 200.128906 95.328125 L 200.128906 91.511719 C 200.128906 89.9375 200.726562 89.191406 201.851562 89.191406 C 202.296875 89.191406 202.746094 89.265625 203.195312 89.414062 C 203.644531 89.5625 204.320312 89.863281 205.066406 90.164062 C 207.613281 91.285156 210.378906 92.183594 213.300781 92.78125 C 216.292969 93.378906 219.210938 93.679688 222.203125 93.679688 C 226.917969 93.679688 230.585938 92.855469 233.128906 91.210938 C 235.675781 89.5625 237.019531 87.167969 237.019531 84.101562 C 237.019531 82.007812 236.347656 80.285156 235 78.863281 C 233.652344 77.441406 231.109375 76.167969 227.441406 74.972656 L 216.59375 71.605469 C 211.128906 69.882812 207.089844 67.339844 204.617188 63.972656 C 202.148438 60.679688 200.875 57.011719 200.875 53.121094 C 200.875 49.976562 201.550781 47.207031 202.898438 44.8125 C 204.246094 42.417969 206.039062 40.324219 208.285156 38.675781 C 210.53125 36.957031 213.074219 35.683594 216.066406 34.785156 C 219.0625 33.886719 222.203125 33.515625 225.496094 33.515625 C 227.144531 33.515625 228.863281 33.589844 230.511719 33.8125 C 232.230469 34.039062 233.804688 34.335938 235.375 34.636719 C 236.871094 35.011719 238.292969 35.386719 239.640625 35.832031 C 240.988281 36.28125 242.035156 36.730469 242.785156 37.179688 C 243.832031 37.78125 244.578125 38.378906 245.027344 39.050781 C 245.476562 39.652344 245.703125 40.472656 245.703125 41.519531 L 245.703125 45.039062 C 245.703125 46.609375 245.101562 47.433594 243.980469 47.433594 C 243.382812 47.433594 242.410156 47.132812 241.136719 46.535156 C 236.871094 44.589844 232.082031 43.617188 226.769531 43.617188 C 222.503906 43.617188 219.136719 44.289062 216.816406 45.710938 C 214.496094 47.132812 213.300781 49.304688 213.300781 52.371094 C 213.300781 54.46875 214.046875 56.261719 215.542969 57.683594 C 217.039062 59.105469 219.808594 60.527344 223.777344 61.800781 L 234.402344 65.167969 C 239.789062 66.890625 243.679688 69.285156 246 72.351562 C 248.320312 75.421875 249.445312 78.9375 249.445312 82.828125 C 249.445312 86.046875 248.769531 88.964844 247.496094 91.511719 C 246.152344 94.054688 244.355469 96.300781 242.035156 98.09375 C 239.714844 99.964844 236.945312 101.3125 233.730469 102.285156 C 230.359375 103.332031 226.84375 103.855469 223.027344 103.855469 Z M 223.027344 103.855469 " fill-opacity="1" fill-rule="nonzero"/><path fill="#ff9900" d="M 237.171875 140.226562 C 212.550781 158.410156 176.78125 168.0625 146.023438 168.0625 C 102.921875 168.0625 64.082031 152.125 34.746094 125.632812 C 32.425781 123.539062 34.523438 120.695312 37.292969 122.339844 C 69.019531 140.75 108.160156 151.898438 148.644531 151.898438 C 175.957031 151.898438 205.964844 146.210938 233.578125 134.539062 C 237.695312 132.667969 241.210938 137.234375 237.171875 140.226562 Z M 237.171875 140.226562 " fill-opacity="1" fill-rule="evenodd"/><path fill="#ff9900" d="M 247.421875 128.550781 C 244.28125 124.511719 226.621094 126.605469 218.613281 127.578125 C 216.21875 127.878906 215.84375 125.785156 218.015625 124.210938 C 232.082031 114.332031 255.207031 117.175781 257.898438 120.46875 C 260.59375 123.835938 257.152344 146.960938 243.980469 158.035156 C 241.960938 159.757812 240.015625 158.859375 240.914062 156.613281 C 243.90625 149.207031 250.566406 132.519531 247.421875 128.550781 Z M 247.421875 128.550781 " fill-opacity="1" fill-rule="evenodd"/></svg>